# AST/ASF file generated using VICON BodyLanguage
# -----------------------------------------------
:version 1.10
:name VICON
:units
  mass 1.0
  length 0.45
  angle deg
:documentation
   .ast/.asf automatically generated from VICON data using
   VICON BodyBuilder and BodyLanguage model FoxedUp or BRILLIANT.MOD
:root
   order TX TY TZ RX RY RZ
   axis XYZ
   position 0 0 0  
   orientation 0 0 0 
:bonedata
  begin
     id 1 
     name lhipjoint
     direction 0.630305 -0.712092 0.309259 
     length 2.29033 
     axis 0 0 0  XYZ
  end
  begin
     id 2 
     name lfemur
     direction 0.34202 -0.939693 0  
     length 6.43538  
     axis 0 0 20  XYZ
    dof rx ry rz
    limits (-160.0 20.0)
           (-70.0 70.0)
           (-60.0 70.0)
  end
  begin
     id 3 
     name ltibia
     direction 0.34202 -0.939693 0   
     length 7.43097   
     axis 0 0 20   XYZ
    dof rx
    limits (-10.0 170.0)
  end
  begin
     id 4 
     name lfoot
     direction 0.0334653 -0.0919451 0.995202   
     length 1.78438   
     axis -90 7.62852e-016 20   XYZ
    dof rx rz
    limits (-45.0 90.0)
           (-70.0 20.0)
  end
  begin
     id 5 
     name ltoes
     direction 1.53535e-011 -4.21933e-011 1   
     length 0.90832   
     axis -90 7.62852e-016 20   XYZ
    dof rx
    limits (-90.0 20.0)
  end
  begin
     id 6 
     name rhipjoint
     direction -0.682059 -0.67077 0.291312   
     length 2.43143  
     axis 0 0 0  XYZ 
  end
  begin
     id 7 
     name rfemur
     direction -0.34202 -0.939693 0   
     length 6.63488   
     axis 0 0 -20   XYZ
    dof rx ry rz
    limits (-160.0 20.0)
           (-70.0 70.0)
           (-70.0 60.0)
  end
  begin
     id 8 
     name rtibia
     direction -0.34202 -0.939693 0   
     length 6.86532   
     axis 0 0 -20   XYZ
    dof rx
    limits (-10.0 170.0)
 end
 begin
     id 9 
     name rfoot
     direction -0.105199 -0.289033 0.951521   
     length 1.77126  
     axis -90 -7.62852e-016 -20   XYZ
    dof rx rz
    limits (-45.0 90.0)
           (-20.0 70.0)
  end
  begin
     id 10 
     name rtoes
     direction -1.53551e-011 -4.21978e-011 1   
     length 0.889273   
     axis -90 -7.62852e-016 -20   XYZ
    dof rx
    limits (-90.0 20.0)
  end
  begin
     id 11 
     name lowerback
     direction -0.0514305 0.998089 0.034245   
     length 2.02077   
     axis 0 0 0   XYZ
    dof rx ry rz
    limits (-20.0 45.0)
           (-30.0 30.0)
           (-30.0 30.0)
  end
  begin
     id 12 
     name upperback
     direction 0.0203189 0.999449 -0.0262315   
     length 2.01413   
     axis 0 0 0   XYZ
    dof rx ry rz
    limits (-20.0 45.0)
           (-30.0 30.0)
           (-30.0 30.0)
  end
  begin
     id 13 
     name thorax
     direction 0.0452736 0.998142 -0.0407729   
     length 2.02986   
     axis 0 0 0   XYZ
    dof rx ry rz
    limits (-20.0 45.0)
           (-30.0 30.0)
           (-30.0 30.0)
  end
  begin
     id 14 
     name lowerneck
     direction -0.0180464 0.999645 -0.0195774   
     length 1.59034   
     axis 0 0 0   XYZ
    dof rx ry rz
    limits (-20.0 45.0)
           (-30.0 30.0)
           (-30.0 30.0)
  end
  begin
     id 15 
     name upperneck
     direction 0.0732272 0.979935 -0.18538   
     length 1.57486   
     axis 0 0 0   XYZ
    dof rx ry rz
    limits (-20.0 45.0)
           (-30.0 30.0)
           (-30.0 30.0)
  end
  begin
     id 16
     name head
     direction 0.0252963 0.997909 -0.059472  
     length 1.60334  
     axis 0 0 0   XYZ
    dof rx ry rz
    limits (-20.0 45.0)
           (-30.0 30.0)
           (-30.0 30.0)
  end
  begin
     id 17 
     name lclavicle
     direction 0.943819 0.330449 0.00315172  
     length 3.50322  
     axis 0 0 0   XYZ
    dof ry rz
    limits (-20.0 10.0)
           (0.0 20.0)
  end
  begin
     id 18 
     name lhumerus
     direction 1 -4.48949e-011 2.22502e-028   
     length 4.63208   
     axis 180 -30 -90   XYZ
    dof rx ry rz
    limits (-60.0 90.0)
           (-90.0 90.0)
           (-90.0 90.0)
  end
  begin
     id 19
     name lradius
     direction 1 -4.48967e-011 -4.10197e-027   
     length 3.41924   
     axis 180 -30 -90   XYZ
    dof rx
    limits (-10.0 170.0)
  end
  begin
     id 20
     name lwrist
     direction 1 -4.48987e-011 -1.24264e-027   
     length 1.70962   
     axis 2.50585e-015 90 90   XYZ
    dof ry
    limits (-180.0 0.0)
 end
  begin
     id 21 
     name lhand
     direction 1 -4.48983e-011 -2.48528e-027   
     length 0.62537   
     axis 1.58582e-015 90 90   XYZ
    dof rx rz
    limits (-90.0 90.0)
           (-45.0 45.0)
  end
  begin
     id 22 
     name lfingers
     direction 1 -4.48896e-011 -4.97056e-027   
     length 0.50419   
     axis 3.17164e-015 90 90   XYZ
    dof rx
    limits (0.0 90.0)
  end
  begin
     id 23
     name lthumb
     direction 0.707107 -6.34803e-011 0.707107   
     length 0.723919   
     axis -90 45 2.85299e-015   XYZ
    dof rx rz
    limits (-45.0 45.0)
           (-45.0 45.0)
  end
  begin
     id 24 
     name rclavicle
     direction -0.964499 0.260664 -0.0423695   
     length 3.91997  
     axis 0 0 0   XYZ 
    dof ry rz
    limits (-10.0 20.0)
           (-20.0 0.0)
  end
  begin
     id 25 
     name rhumerus
     direction -1 -4.48957e-011 -1.98656e-027  
     length 4.4064   
     axis 180 30 90   XYZ
    dof rx ry rz
    limits (-90.0 60.0)
           (-90.0 90.0)
           (-90.0 90.0)
  end
  begin
     id 26 
     name rradius
     direction -1 -4.48968e-011 1.96972e-027   
     length 3.44675   
     axis 180 30 90   XYZ
    dof rx
    limits (-10.0 170.0)
  end
  begin
     id 27 
     name rwrist
     direction -1 -4.48974e-011 -1.24264e-027   
     length 1.72338   
     axis 2.50585e-015 -90 -90   XYZ
    dof ry
    limits (-180.0 0.0)
  end
  begin
     id 28
     name rhand
     direction -1 -4.48901e-011 -2.48528e-027   
     length 0.513674   
     axis 1.58582e-015 -90 -90   XYZ
    dof rx rz
    limits (-90.0 90.0)
           (-45.0 45.0)
  end
  begin
     id 29
     name rfingers
     direction -1 -4.48946e-011 -4.97056e-027   
     length 0.414137   
     axis 3.17164e-015 -90 -90   XYZ
    dof rx
    limits (0.0 90.0)
  end
  begin
     id 30
     name rthumb
     direction -0.707107 -6.34859e-011 0.707107   
     length 0.59462   
     axis -90 -45 -2.85299e-015   XYZ
    dof rx rz
    limits (-45.0 45.0)
           (-45.0 45.0)
  end
:hierarchy
  begin
    root lhipjoint rhipjoint lowerback
    lhipjoint lfemur
    lfemur ltibia
    ltibia lfoot
    lfoot ltoes
    rhipjoint rfemur
    rfemur rtibia
    rtibia rfoot
    rfoot rtoes
    lowerback upperback
    upperback thorax
    thorax lowerneck lclavicle rclavicle
    lowerneck upperneck
    upperneck head
    lclavicle lhumerus
    lhumerus lradius
    lradius lwrist
    lwrist lhand lthumb
    lhand lfingers
    rclavicle rhumerus
    rhumerus rradius
    rradius rwrist
    rwrist rhand rthumb
    rhand rfingers
  end

#!OML:ASF E:\inclinewalkrobotboard\Project 1\Capture day 1\Session 1\subject1.ASF
:FULLY-SPECIFIED
:DEGREES
158
root 8.17214 15.9682 -0.810775 -175.363 6.948 -179.863
lowerback 7.1768 -0.4707 -9.63709
upperback 7.24575 -0.313395 0.303147
thorax 3.71664 -0.298051 5.75705
lowerneck -4.46946 -3.92243 -6.59273
upperneck 24.087 -5.51083 12.1809
head 8.71508 -1.37805 4.91435
rclavicle -9.74045e-015 -5.56597e-015
rhumerus -42.9118 -18.2163 -52.3353
rradius 25.7922
rwrist 18.9903
rhand -17.5167 -42.4749
rfingers 7.12502
rthumb 8.73675 -72.274
lclavicle -9.74045e-015 -5.56597e-015
lhumerus -28.373 -10.9675 65.5638
lradius 38.7059
lwrist -4.51101
lhand -39.3568 -27.0106
lfingers 7.12502
lthumb -12.3477 2.60474
rfemur -38.3335 10.0029 -4.61839
rtibia 74.3948
rfoot 200.521 16.5876
rtoes 11.3626
lfemur -31.0218 -0.012662 -25.2177
ltibia 42.5009
lfoot -10.7 1.81358
ltoes -62.7817
159
root 8.13312 16.0405 -1.00994 -178.15 6.84031 -181.443
lowerback 9.66554 -1.4743 -11.1674
upperback 8.36524 -1.63148 -0.396027
thorax 3.87306 -0.929227 5.96241
lowerneck -3.43083 -2.7293 -6.8866
upperneck 23.2159 -3.77754 11.7572
head 8.03018 -0.716102 4.92871
rclavicle -3.18055e-015 1.27222e-014
rhumerus -46.7441 -17.4341 -51.6108
rradius 26.243
rwrist 19.2945
rhand -16.0791 -40.8917
rfingers 7.12502
rthumb 10.1239 -70.6281
lclavicle -3.18055e-015 1.27222e-014
lhumerus -24.2104 -9.61241 65.9993
lradius 40.8801
lwrist -4.00361
lhand -40.4045 -28.1915
lfingers 7.12502
lthumb -13.3577 1.36033
rfemur -45.2409 8.27003 -4.23313
rtibia 85.7717
rfoot 135.305 50.9199
rtoes 25.0949
lfemur -26.3537 1.37551 -27.2694
ltibia 40.5118
lfoot -10.2691 1.22243
ltoes -62.627
160
root 8.12195 16.0957 -1.18131 -180.208 6.01803 -182.356
lowerback 11.989 -2.46654 -12.1671
upperback 9.36518 -2.92759 -0.950382
thorax 4.0299 -1.52376 6.05731
lowerneck -3.63811 -1.69424 -6.46027
upperneck 23.0021 -2.25719 10.8368
head 7.82436 -0.075114 4.63809
rclavicle -8.07066e-014 -4.85035e-014
rhumerus -50.5652 -17.4017 -50.5789
rradius 26.5464
rwrist 19.3087
rhand -16.0529 -40.3654
rfingers 7.12502
rthumb 10.1491 -70.1006
lclavicle -8.07066e-014 -4.85035e-014
lhumerus -18.5981 -8.24264 66.2435
lradius 42.0053
lwrist -4.74527
lhand -40.5335 -29.5975
lfingers 7.12502
lthumb -13.482 -0.0538338
rfemur -51.2863 5.379 -2.29332
rtibia 88.202
rfoot 59.4051 25.8001
rtoes 42.0922
lfemur -22.9078 2.34743 -28.386
ltibia 39.3428
lfoot -9.9682 0.342593
ltoes -62.2276
161
root 8.13961 16.1301 -1.2995 -180.99 4.6288 -182.483
lowerback 13.9458 -3.40515 -12.5955
upperback 9.96003 -4.20282 -1.20869
thorax 3.93524 -2.09763 6.18013
lowerneck -3.5341 -0.800086 -6.00082
upperneck 22.2942 -1.03916 10.437
head 7.44924 0.458055 4.47621
rclavicle 4.25399e-014 3.02153e-014
rhumerus -54.5864 -17.4634 -49.5855
rradius 27.0701
rwrist 18.6745
rhand -16.2583 -40.8167
rfingers 7.12502
rthumb 9.95095 -70.5615
lclavicle 4.25399e-014 3.02153e-014
lhumerus -12.4531 -7.17589 66.8106
lradius 42.6031
lwrist -7.2386
lhand -39.2125 -28.1969
lfingers 7.12502
lthumb -12.2086 1.42678
rfemur -56.5457 2.42096 0.783555
rtibia 73.725
rfoot -23.2547 -21.0527
rtoes 65.5834
lfemur -21.404 2.62427 -28.5215
ltibia 39.1565
lfoot -9.92493 -0.466951
ltoes -62.717
162
root 8.13345 16.1635 -1.46944 -181.324 4.57517 -182.269
lowerback 14.7242 -4.12519 -12.5515
upperback 10.4199 -5.08728 -1.45897
thorax 4.19036 -2.50628 5.97837
lowerneck -3.40459 0.110456 -5.55547
upperneck 21.8254 0.240628 9.88232
head 7.16077 1.02162 4.27391
rclavicle -1.82882e-014 1.59028e-015
rhumerus -58.0888 -18.106 -47.3816
rradius 26.2174
rwrist 19.6402
rhand -17.7521 -40.8641
rfingers 7.12502
rthumb 8.50954 -70.6726
lclavicle -1.82882e-014 1.59028e-015
lhumerus -6.35099 -5.34474 67.7322
lradius 43.3819
lwrist -7.70503
lhand -38.6915 -29.1953
lfingers 7.12502
lthumb -11.7062 0.457678
rfemur -60.2529 1.58302 3.99623
rtibia 57.8599
rfoot -32.4259 -10.9961
rtoes -6.76154
lfemur -19.8687 3.09226 -28.2539
ltibia 38.3501
lfoot -10.3045 -0.520873
ltoes -62.8985
163
root 8.11774 16.2029 -1.66239 -181.507 4.80629 -181.988
lowerback 15.3009 -4.81312 -12.3808
upperback 10.7051 -5.95631 -1.69238
thorax 4.32682 -2.90904 5.72286
lowerneck -3.81095 0.885559 -5.21424
upperneck 21.7498 1.32961 9.4023
head 7.12633 1.51181 4.1239
rclavicle 8.34896e-014 -7.63333e-014
rhumerus -61.3983 -18.1553 -44.7397
rradius 25.3138
rwrist 21.7444
rhand -19.6522 -40.1213
rfingers 7.12502
rthumb 6.67557 -69.996
lclavicle 8.34896e-014 -7.63333e-014
lhumerus -1.42889 -4.05858 69.296
lradius 44.322
lwrist -8.51875
lhand -43.4198 -26.5413
lfingers 7.12502
lthumb -16.2626 2.79666
rfemur -62.6218 2.70582 6.161
rtibia 40.7543
rfoot -33.8058 -12.6152
rtoes -14.4571
lfemur -18.3287 3.53542 -28.0236
ltibia 37.4998
lfoot -10.9517 -0.519651
ltoes -62.885
